<svg width="160" height="39" viewBox="0 0 160 39" fill="none" xmlns="http://www.w3.org/2000/svg">
<path d="M35.7021 20.5295H33.4146V29.7702H35.7021V20.5295Z" fill="white"/>
<path d="M45.9186 20.5295V29.7702H43.563L39.9118 24.2111V29.7702H37.6243V20.5295H39.981L43.6311 26.0886V20.5295H45.9186Z" fill="white"/>
<path d="M55.0646 26.8113C55.0646 27.755 54.7425 28.5291 54.1087 29.1076C53.4749 29.686 52.4653 29.9944 51.1316 29.9944C50.6999 29.9943 50.2694 29.9455 49.8474 29.8489C49.485 29.7686 49.1304 29.6526 48.7883 29.5023C48.5003 29.3678 48.2412 29.2311 48.0172 29.0966C47.8426 28.997 47.6768 28.881 47.5217 28.75L47.4453 28.6822L48.2773 26.784C48.6512 27.067 49.061 27.2926 49.4944 27.4543C49.8788 27.6152 50.2819 27.7208 50.6929 27.7681L51.1264 27.7965C51.8883 27.8261 52.3734 27.7233 52.6088 27.4827C52.6626 27.4288 52.7053 27.3637 52.7341 27.2914C52.7629 27.2191 52.7772 27.1413 52.776 27.0628C52.776 26.8835 52.7027 26.644 52.3507 26.5161C51.9107 26.3831 51.4622 26.2837 51.0088 26.2187C48.7377 25.8404 47.6301 24.8672 47.6301 23.2434C47.6235 22.8395 47.705 22.4394 47.8683 22.0743C48.0316 21.7092 48.2723 21.389 48.5715 21.1385C49.2023 20.5809 50.1468 20.2999 51.3752 20.2999C51.5331 20.2999 51.7448 20.3086 52.0028 20.3272C52.2609 20.3458 52.6872 20.4486 53.2859 20.6334C53.7629 20.7671 54.21 21.0002 54.6011 21.319L53.7081 23.1111C53.6627 23.0805 53.6111 23.0477 53.5523 23.0127C53.415 22.9296 53.1208 22.8246 52.6542 22.6912C52.1578 22.5565 51.6471 22.4904 51.1347 22.4944C50.8333 22.4944 49.9187 22.4944 49.9187 23.1024C49.9181 23.2104 49.9488 23.3161 50.0065 23.4052C50.0643 23.4943 50.1464 23.5626 50.2418 23.601C50.4162 23.6884 50.728 23.7639 51.2245 23.835C51.6488 23.8918 52.0173 23.9531 52.3187 24.0176C52.6674 24.0973 53.0101 24.2044 53.3438 24.338C53.6697 24.4562 53.9752 24.6301 54.248 24.853C54.4917 25.0718 54.689 25.3427 54.8271 25.6479C54.9925 26.0102 55.0738 26.409 55.0646 26.8113Z" fill="white"/>
<path d="M62.9223 20.5295V22.7262H60.5614V29.7702H58.2739V22.7262H55.9141V20.5295H62.9223Z" fill="white"/>
<path d="M68.383 20.5295H66.1657L62.5527 29.7702H64.8537L65.4307 28.1803H69.1128L69.6909 29.7702H71.8195L68.383 20.5295ZM66.0841 26.4341L67.2857 23.1286L68.4852 26.4341H66.0841Z" fill="white"/>
<path d="M78.8513 27.5746V29.7702H73.1315V20.5295H75.418V27.5746H78.8513Z" fill="white"/>
<path d="M86.0639 27.5746V29.7702H80.344V20.5295H82.6315V27.5746H86.0639Z" fill="white"/>
<path d="M93.0286 20.5295H90.8103L87.1973 29.7702H89.4982L90.0753 28.1803H93.7585L94.3365 29.7702H96.464L93.0286 20.5295ZM90.7298 26.4341L91.9303 23.1286L93.1308 26.4341H90.7298Z" fill="white"/>
<path d="M103.281 20.5295V22.7262H100.92V29.7702H98.6339V22.7262H96.2731V20.5295H103.281Z" fill="white"/>
<path d="M107.061 20.5295H104.774V29.7702H107.061V20.5295Z" fill="white"/>
<path d="M116.626 21.7224C116.18 21.2658 115.654 20.9049 115.078 20.6596C114.492 20.4177 113.867 20.2967 113.238 20.3031C112.612 20.2922 111.991 20.4122 111.41 20.6561C110.829 20.9001 110.299 21.2632 109.851 21.7246C108.922 22.6661 108.446 23.8186 108.446 25.1526C108.439 25.7965 108.561 26.4346 108.804 27.0251C109.046 27.6156 109.404 28.1453 109.853 28.5794C110.301 29.0406 110.831 29.4036 111.411 29.6475C111.992 29.8914 112.613 30.0115 113.238 30.0009C113.863 30.0118 114.484 29.8918 115.065 29.6479C115.646 29.404 116.176 29.0409 116.624 28.5794C117.073 28.1452 117.43 27.6156 117.672 27.0253C117.914 26.435 118.036 25.7972 118.029 25.1537C118.031 23.8175 117.559 22.6639 116.626 21.7224ZM115.011 27.0246C114.781 27.2751 114.506 27.4732 114.201 27.6069C113.896 27.7406 113.569 27.807 113.24 27.802C112.91 27.8069 112.583 27.7405 112.279 27.6069C111.974 27.4732 111.699 27.275 111.469 27.0246C111.233 26.7816 111.046 26.49 110.92 26.1677C110.794 25.8454 110.731 25.4992 110.736 25.1504C110.731 24.8013 110.794 24.4548 110.92 24.1321C111.046 23.8095 111.233 23.5175 111.469 23.274C111.699 23.0242 111.974 22.8267 112.278 22.6934C112.582 22.5601 112.908 22.4939 113.238 22.4988C113.567 22.4936 113.894 22.5597 114.199 22.693C114.503 22.8263 114.779 23.024 115.009 23.274C115.245 23.5176 115.432 23.8097 115.558 24.1323C115.684 24.4549 115.746 24.8013 115.742 25.1504C115.747 25.499 115.684 25.845 115.559 26.1673C115.433 26.4895 115.247 26.7812 115.011 27.0246Z" fill="white"/>
<path d="M127.712 20.5295V29.7702H125.355L121.704 24.2111V29.7702H119.417V20.5295H121.772L125.424 26.0886V20.5295H127.712Z" fill="white"/>
<path d="M140.032 21.355C139.738 21.0678 139.384 20.856 139 20.7361C138.531 20.5903 138.044 20.5207 137.555 20.5295H133.622V29.7702H135.908V26.8179H137.983C138.856 26.8179 139.557 26.5063 140.067 25.8896C140.577 25.2729 140.845 24.4856 140.845 23.5616C140.845 22.6376 140.576 21.8996 140.032 21.355ZM138.2 24.5599C138.082 24.6577 137.949 24.7319 137.806 24.7786C137.648 24.827 137.485 24.8509 137.321 24.8497H135.917V22.4988H137.321C137.638 22.4861 137.95 22.5909 138.202 22.7951C138.323 22.901 138.418 23.0352 138.481 23.187C138.544 23.3389 138.573 23.5042 138.564 23.6699C138.564 24.0613 138.443 24.3598 138.2 24.5599Z" fill="#F56200"/>
<path d="M147.492 26.6473L147.656 26.573C148.18 26.3393 148.619 25.9304 148.904 25.4084C149.054 25.1387 149.167 24.8474 149.239 24.5435C149.317 24.2221 149.356 23.8913 149.354 23.5594C149.354 22.6409 149.077 21.8996 148.528 21.355C147.979 20.8105 147.151 20.5295 146.059 20.5295H142.126V29.7702H144.413V26.8179H145.136L146.994 29.7702H149.639L147.492 26.6473ZM146.702 24.5599C146.583 24.6577 146.449 24.7318 146.305 24.7786C146.149 24.8269 145.986 24.8508 145.823 24.8497H144.418V22.4988H145.823C146.14 22.4863 146.452 22.5911 146.704 22.7951C146.824 22.9012 146.919 23.0355 146.982 23.1873C147.045 23.3391 147.073 23.5043 147.065 23.6699C147.065 24.0613 146.943 24.3598 146.702 24.5599Z" fill="#F56200"/>
<path d="M158.597 21.7224C158.148 21.2614 157.618 20.8987 157.036 20.6548C156.455 20.4109 155.834 20.2906 155.209 20.301C154.584 20.2902 153.963 20.4102 153.381 20.6542C152.8 20.8981 152.27 21.2611 151.821 21.7224C150.892 22.665 150.418 23.8175 150.418 25.1504C150.411 25.7943 150.532 26.4326 150.774 27.0235C151.016 27.6144 151.373 28.1446 151.821 28.5794C152.269 29.041 152.8 29.4042 153.381 29.6481C153.962 29.8921 154.584 30.012 155.209 30.0009C155.834 30.0116 156.455 29.8915 157.037 29.6476C157.618 29.4037 158.148 29.0407 158.597 28.5794C159.045 28.1447 159.402 27.6145 159.644 27.0236C159.886 26.4327 160.007 25.7944 160 25.1504C160 23.8164 159.528 22.6639 158.597 21.7224ZM156.979 27.0246C156.748 27.2729 156.472 27.4705 156.169 27.6063C155.864 27.7378 155.538 27.8043 155.209 27.802C154.879 27.807 154.552 27.7406 154.247 27.6069C153.943 27.4732 153.667 27.2751 153.438 27.0246C153.201 26.7815 153.015 26.4899 152.889 26.1676C152.763 25.8453 152.701 25.4991 152.706 25.1504C152.701 24.8013 152.763 24.4549 152.889 24.1322C153.015 23.8096 153.201 23.5175 153.438 23.274C153.667 23.024 153.943 22.8263 154.248 22.693C154.552 22.5597 154.879 22.4936 155.209 22.4988C155.538 22.4938 155.865 22.56 156.169 22.6933C156.474 22.8266 156.749 23.0242 156.979 23.274C157.216 23.5175 157.402 23.8095 157.528 24.1321C157.654 24.4548 157.717 24.8013 157.712 25.1504C157.717 25.4992 157.655 25.8454 157.529 26.1677C157.402 26.49 157.216 26.7816 156.979 27.0246Z" fill="#F56200"/>
<path d="M23.6472 4.03375C23.535 7.25723 23.4222 10.4814 23.3086 13.7064L21.9739 9.67046L20.3687 4.27321C20.0446 3.17977 20.8002 2.04914 21.8769 2.05242H21.9533L22.0266 2.05789C22.4843 2.10449 22.9076 2.33548 23.2092 2.70316C23.5108 3.07084 23.6676 3.54715 23.6472 4.03375Z" fill="#F56200"/>
<path d="M21.8531 16.0835L9.5422 2.28861C9.28607 2.00146 8.9772 1.77283 8.63459 1.61676C8.29198 1.46069 7.92287 1.38048 7.54992 1.38105C7.00985 1.38108 6.48187 1.55038 6.03246 1.86763C5.70392 2.10003 5.42671 2.40494 5.21985 2.76146C5.01298 3.11798 4.88136 3.51767 4.834 3.93312C4.78664 4.34858 4.82467 4.76997 4.94547 5.16839C5.06627 5.56682 5.267 5.93287 5.53388 6.24142C8.6892 9.88624 11.8442 13.5292 14.9988 17.1704L14.8677 17.1354L12.0228 15.4461C11.4275 15.0911 10.7559 14.9047 10.0728 14.9048C9.12766 14.904 8.21301 15.259 7.4921 15.9064L3.06673 19.8756C2.87867 20.0433 2.72748 20.2526 2.62377 20.4886C2.52005 20.7247 2.46632 20.982 2.46632 21.2424C2.46632 21.5028 2.52005 21.7601 2.62377 21.9962C2.72748 22.2323 2.87867 22.4415 3.06673 22.6092C3.37069 22.8803 3.75538 23.0286 4.15269 23.028C4.51504 23.0283 4.86776 22.9044 5.15813 22.6748L9.23252 19.5104C9.35713 19.4129 9.50805 19.3604 9.66298 19.3606C9.81062 19.3612 9.95461 19.4092 10.0759 19.4984L14.9761 23.1341C15.0489 23.1881 15.1083 23.26 15.1493 23.3435C15.1903 23.4271 15.2116 23.5199 15.2115 23.6141V30.9653C15.2115 31.1208 15.1532 31.2699 15.0494 31.3798C14.9456 31.4897 14.8049 31.5514 14.6582 31.5514H4.64509C4.49834 31.5514 4.3576 31.4897 4.25384 31.3798C4.15007 31.2699 4.09179 31.1208 4.09179 30.9653V25.1077C4.09512 24.7973 4.02758 24.4907 3.89493 24.2139C3.76229 23.937 3.56848 23.6983 3.32997 23.5179C3.14388 23.3809 2.93298 23.2863 2.7106 23.2401C2.60853 23.2195 2.50483 23.2093 2.40092 23.2095C1.62465 23.2095 0.843212 23.7803 0.530432 24.7021C-0.385197 27.3996 0.0886078 30.5805 0.442679 31.6739C0.735846 32.5804 1.20554 33.9931 2.36272 35.3916C4.90213 38.4653 8.70194 39 11.0989 39C11.8053 39.0005 12.5111 38.9537 13.212 38.86C14.4946 38.6917 15.7505 38.3439 16.9467 37.8256C17.7597 37.4746 18.545 37.0556 19.2952 36.5725C21.128 35.3848 22.6418 33.7179 23.6912 31.7318C24.7405 29.7457 25.2903 27.5073 25.2875 25.2313V25.2138C25.2845 21.8177 24.0558 18.5513 21.8531 16.0835Z" fill="#F56200"/>
<path d="M23.1393 16.1513C20.0576 12.4511 16.9767 8.75014 13.8963 5.04846C13.5193 4.59265 13.2724 4.03265 13.1845 3.43381C13.0966 2.83497 13.1712 2.222 13.3998 1.66643C13.6718 0.989497 14.1842 0.453017 14.8264 0.172784C15.109 0.0574159 15.4093 -0.00117421 15.7121 1.78296e-05C16.8239 1.78296e-05 17.9893 0.747932 18.4786 2.05351L23.1393 16.1513Z" fill="#F56200"/>
</svg>
