<svg width="370" height="104" viewBox="0 0 370 104" fill="none" xmlns="http://www.w3.org/2000/svg">
<path d="M1.06079 67.5044C0.693181 67.4535 0.365915 67.2152 0.215153 66.847C-0.00693183 66.3001 0.257887 65.671 0.802806 65.4474C1.1495 65.3024 36.2171 51.0875 86.269 40.4957C132.481 30.7135 201.309 22.1035 266.75 36.6342C267.328 36.7625 267.691 37.3337 267.562 37.9141C267.434 38.4945 266.859 38.8636 266.287 38.7313C201.218 24.286 132.712 32.8632 86.7034 42.5965C36.8391 53.1515 1.94962 67.2946 1.60358 67.4348C1.42552 67.5067 1.23517 67.5285 1.05608 67.5037L1.06079 67.5044Z" fill="#F56200"/>
<path d="M342.099 82.4147C342.005 82.4016 341.917 82.3751 341.826 82.3385C260.831 48.0221 185.824 52.4477 185.076 52.4978C184.479 52.5398 183.978 52.0914 183.935 51.4999C183.896 50.9091 184.341 50.4044 184.933 50.3664C185.686 50.317 261.174 45.8525 342.661 80.3713C343.207 80.6004 343.461 81.2307 343.228 81.7695C343.035 82.2227 342.563 82.474 342.095 82.4093L342.099 82.4147Z" fill="#F56200"/>
<path d="M361.099 95.1405C357.547 94.6488 355.063 91.359 355.554 87.8109C356.046 84.2628 359.335 81.7723 362.882 82.2633C366.429 82.7544 368.923 86.0456 368.432 89.5937C367.94 93.1418 364.651 95.6322 361.099 95.1405ZM362.578 84.4619C360.242 84.1386 358.081 85.7749 357.758 88.1109C357.434 90.4468 359.07 92.6089 361.405 92.9322C363.74 93.2554 365.901 91.6191 366.225 89.2831C366.548 86.9472 364.913 84.7851 362.578 84.4619Z" fill="#F56200"/>
</svg>
