<svg width="100" height="98" viewBox="0 0 100 98" fill="none" xmlns="http://www.w3.org/2000/svg">
<path d="M1.60553 71.4947C1.53235 71.4748 1.46151 71.4464 1.38869 71.4082C0.900503 71.1466 0.718702 70.5386 0.984618 70.0521L38.3557 0.985713C38.6173 0.498028 39.2331 0.32335 39.7127 0.582645C40.2009 0.844274 40.3826 1.45216 40.1167 1.93868L2.74561 71.0051C2.5222 71.42 2.04025 71.6125 1.6012 71.4935L1.60553 71.4947Z" fill="#F56200"/>
<path d="M18.8445 76.6811C18.6637 76.6321 18.4926 76.5303 18.3582 76.3784C17.9898 75.9646 18.0314 75.3342 18.4453 74.9663L92.2426 9.71898C92.6565 9.35109 93.2874 9.39286 93.6558 9.80667C94.0242 10.2205 93.9827 10.851 93.5687 11.2189L19.7715 76.4662C19.5094 76.6998 19.1587 76.7663 18.8445 76.6811Z" fill="#F56200"/>
<path d="M28.7835 97.2192C28.4822 97.1376 28.2225 96.9194 28.1042 96.6057C27.9121 96.0873 28.17 95.5109 28.6899 95.3149L98.451 69.1382C98.9709 68.9421 99.5466 69.2044 99.7431 69.7239C99.9352 70.2423 99.6773 70.8187 99.1574 71.0148L29.3964 97.1915C29.1904 97.2695 28.9772 97.2718 28.7835 97.2192Z" fill="#F56200"/>
</svg>
